<?xml version="1.0" standalone="no"?>
<!DOCTYPE svg PUBLIC "-//W3C//DTD SVG 20010904//EN"
 "http://www.w3.org/TR/2001/REC-SVG-20010904/DTD/svg10.dtd">
<svg version="1.0" xmlns="http://www.w3.org/2000/svg"
 width="512.000000pt" height="512.000000pt" viewBox="0 0 512.000000 512.000000"
 preserveAspectRatio="xMidYMid meet">

<g transform="translate(0.000000,512.000000) scale(0.100000,-0.100000)"
fill="#F5F5F5" stroke="none">
<path fill="#F5F5F5" d="M2330 5103 c-19 -1 -87 -8 -150 -14 -239 -22 -549 -87 -587 -122 -31
-27 -30 -71 2 -102 28 -29 43 -30 111 -10 80 23 289 62 439 81 173 22 624 26
785 6 564 -69 986 -224 1335 -491 82 -62 245 -221 315 -306 119 -145 238 -350
310 -530 54 -137 35 -234 -58 -300 l-44 -30 -2228 0 -2228 0 -44 30 c-95 68
-114 162 -58 300 194 487 546 856 1037 1085 100 47 123 68 123 110 0 28 -43
70 -73 70 -13 0 -86 -31 -163 -69 -448 -222 -781 -550 -989 -975 -35 -72 -75
-165 -90 -206 -50 -141 -30 -276 57 -375 l41 -46 -51 -52 c-95 -98 -128 -194
-120 -358 4 -80 10 -107 35 -161 51 -108 133 -184 236 -219 l52 -18 0 -221 0
-222 -48 -18 c-119 -45 -215 -141 -254 -253 -28 -80 -25 -273 5 -347 44 -110
123 -188 237 -235 l60 -24 6 -113 c4 -62 14 -142 24 -178 95 -359 387 -620
820 -733 183 -48 198 -48 1440 -45 1145 4 1172 4 1260 25 475 110 791 377 890
753 10 36 20 116 24 178 l6 113 60 24 c168 68 254 194 263 386 7 157 -31 264
-127 357 -45 45 -149 102 -184 102 -16 0 -17 15 -15 226 l3 225 52 18 c103 35
185 111 236 219 25 54 31 81 35 161 8 161 -26 262 -120 358 l-51 52 41 46 c89
102 107 236 50 392 -118 327 -368 673 -644 894 -407 324 -912 505 -1557 558
-117 10 -423 13 -507 4z m2495 -2000 c94 -51 137 -123 143 -244 7 -144 -33
-225 -139 -284 l-54 -30 -2215 0 -2215 0 -54 30 c-106 59 -146 140 -139 284 5
94 20 134 72 189 32 34 71 59 116 73 14 4 1020 7 2235 6 l2210 -2 40 -22z
m-185 -798 l0 -85 -764 0 c-713 0 -765 -1 -784 -17 -12 -10 -24 -30 -28 -45
-5 -22 0 -33 24 -58 l30 -30 761 0 761 0 0 -179 c0 -166 -1 -180 -21 -205 -30
-38 -76 -59 -115 -53 -19 3 -59 24 -91 47 -72 52 -146 73 -248 72 -98 0 -170
-25 -258 -88 -124 -89 -151 -103 -205 -115 -106 -22 -181 1 -301 94 -85 65
-150 94 -237 106 -137 20 -246 -14 -385 -118 -160 -121 -274 -121 -440 0 -107
78 -167 106 -255 118 -135 20 -243 -13 -376 -113 -41 -30 -91 -62 -111 -71
l-37 -15 0 222 c0 205 2 226 20 256 11 17 21 33 22 34 2 1 277 5 611 8 l609 5
19 24 c25 31 24 69 -3 98 l-21 23 -606 0 c-588 0 -607 -1 -651 -21 -55 -25
-95 -62 -123 -114 -22 -39 -22 -51 -27 -560 -6 -589 -2 -565 -88 -606 -73 -36
-143 -12 -187 62 -19 33 -20 57 -25 554 -6 575 -2 546 -72 615 -64 65 -88 70
-335 70 l-223 0 0 85 0 85 2080 0 2080 0 0 -85z m-3711 -261 l31 -26 0 -128
c0 -143 2 -139 -80 -140 -45 -1 -130 -36 -199 -83 -59 -41 -86 -45 -137 -21
-58 28 -64 51 -64 249 l0 175 209 0 209 0 31 -26z m3946 -296 c75 -66 90 -105
90 -228 0 -97 -2 -109 -29 -158 -16 -28 -44 -64 -63 -78 -76 -58 37 -54 -1708
-54 l-1605 0 0 83 0 84 59 16 c40 11 85 36 147 82 121 89 159 106 243 107 94
1 131 -14 243 -94 144 -103 258 -134 390 -109 80 16 144 48 234 117 93 71 132
86 220 86 88 0 136 -20 244 -101 125 -94 244 -126 380 -101 80 14 144 46 235
115 92 71 133 87 221 87 76 0 94 -6 181 -65 105 -70 221 -71 320 -3 65 44 113
135 113 211 0 48 2 53 20 48 11 -3 40 -23 65 -45z m-4543 -22 c5 -80 43 -147
111 -193 97 -65 213 -66 307 -2 71 48 111 66 163 72 l47 7 0 -190 0 -190 -305
0 c-329 0 -339 1 -408 54 -19 14 -47 50 -63 78 -27 49 -29 61 -29 158 0 124
15 162 91 229 68 59 81 56 86 -23z m632 -668 c3 -13 6 -36 6 -53 0 -44 42
-125 86 -167 122 -116 323 -110 429 14 41 49 75 133 75 188 l0 40 1540 0 1540
0 0 -83 c0 -192 -93 -404 -236 -537 -134 -125 -344 -228 -564 -276 -80 -18
-150 -19 -1280 -19 -1327 0 -1249 -4 -1450 67 -317 112 -516 297 -599 559 -23
72 -42 219 -34 262 l5 27 238 0 238 0 6 -22z"/>
<path fill="#F5F5F5" d="M1901 4527 c-34 -17 -113 -165 -105 -197 9 -39 34 -60 71 -60 42 0
60 18 108 111 36 70 38 78 26 106 -7 17 -24 35 -37 42 -31 14 -33 14 -63 -2z"/>
<path fill="#F5F5F5" d="M2504 4519 c-16 -18 -19 -37 -19 -121 0 -93 2 -101 24 -119 30 -25
76 -24 101 1 17 17 20 33 20 123 0 88 -3 106 -18 120 -27 24 -85 22 -108 -4z"/>
<path fill="#F5F5F5" d="M3153 4530 c-25 -10 -43 -39 -43 -71 0 -12 21 -58 46 -101 33 -56 53
-80 71 -84 38 -10 76 7 92 41 13 28 12 33 -25 103 -55 103 -91 132 -141 112z"/>
</g>
</svg>
